<svg width="231" height="117" viewBox="0 0 231 117" fill="none" xmlns="http://www.w3.org/2000/svg">
<g filter="url(#filter0_di_1018_6)">
<path d="M4.71289 0.333984C15.6504 0.724609 24.1953 0.919922 30.3477 0.919922C72.2422 0.675781 95.4355 0.480469 99.9277 0.333984C100.562 5.2168 101.808 9.85547 103.663 14.25C105.519 18.5957 107.887 23.2344 110.768 28.166C110.377 28.9961 109.522 29.6553 108.204 30.1436C106.446 26.8232 104.322 23.8691 101.832 21.2812C99.3418 18.6934 96.1924 16.252 92.3838 13.957C88.624 11.6621 83.9121 9.78223 78.248 8.31738C72.6328 6.85254 66.2119 5.87598 58.9854 5.3877H38.7705C38.1357 26.042 37.8184 41.5938 37.8184 52.043H58.6924C60.1084 52.043 61.4268 51.9453 62.6475 51.75C63.917 51.5059 65.0889 51.1152 66.1631 50.5781C67.2373 49.9922 68.1895 49.4551 69.0195 48.9668C69.8984 48.4297 70.7773 47.6484 71.6562 46.623C72.5352 45.5488 73.2676 44.6699 73.8535 43.9863C74.4395 43.2539 75.1475 42.1553 75.9775 40.6904C76.8076 39.2256 77.4424 38.0781 77.8818 37.248C78.3213 36.418 78.9805 35.124 79.8594 33.3662C80.7871 31.6084 81.4951 30.29 81.9834 29.4111C83.4971 29.9971 84.4248 30.6318 84.7666 31.3154C82.7158 34.9287 80.9824 38.9326 79.5664 43.3271C78.1504 47.7217 77.4424 51.3838 77.4424 54.3135C77.4424 61.2471 79.8838 68.8887 84.7666 77.2383C84.376 78.0195 83.4482 78.6787 81.9834 79.2158C81.4463 78.2393 80.6895 76.8477 79.7129 75.041C78.7852 73.1855 78.0527 71.7695 77.5156 70.793C76.9785 69.8164 76.2461 68.5713 75.3184 67.0576C74.3906 65.5439 73.5605 64.3721 72.8281 63.542C72.1445 62.7119 71.2412 61.7842 70.1182 60.7588C69.0439 59.7334 67.9697 58.9766 66.8955 58.4883C65.8213 57.9512 64.5762 57.5117 63.1602 57.1699C61.793 56.7793 60.3037 56.584 58.6924 56.584H37.8184C37.8184 64.3477 38.0869 79.9971 38.624 103.532H61.9883C69.2148 103.044 75.6357 102.067 81.251 100.603C86.915 99.1377 91.627 97.2578 95.3867 94.9629C99.1953 92.668 102.345 90.2266 104.835 87.6387C107.325 85.0508 109.449 82.0967 111.207 78.7764C112.525 79.2646 113.38 79.8994 113.771 80.6807C113.526 81.1689 112.892 82.3408 111.866 84.1963C110.841 86.0518 110.157 87.3213 109.815 88.0049C109.474 88.6396 108.888 89.7871 108.058 91.4473C107.276 93.0586 106.69 94.377 106.3 95.4023C105.909 96.3789 105.445 97.624 104.908 99.1377C104.42 100.651 104.005 102.141 103.663 103.605C103.37 105.021 103.126 106.486 102.931 108H38.624C25.3916 108 14.0391 108.146 4.56641 108.439C4.37109 107.854 4.27344 107.365 4.27344 106.975C4.27344 106.633 4.37109 105.974 4.56641 104.997C6.8125 104.802 8.61914 104.606 9.98633 104.411C11.4023 104.167 13.1113 103.801 15.1133 103.312C17.1641 102.824 18.7266 102.141 19.8008 101.262C20.875 100.334 21.4365 99.2354 21.4854 97.9658C22.0713 82.6826 22.3643 67.2773 22.3643 51.75C22.3643 35.9297 22.1201 22.2822 21.6318 10.8076C21.583 9.53809 21.0215 8.46387 19.9473 7.58496C18.873 6.65723 17.3105 5.94922 15.2598 5.46094C13.2578 4.97266 11.5488 4.63086 10.1328 4.43555C8.76562 4.19141 6.95898 3.97168 4.71289 3.77637C4.51758 2.89746 4.41992 2.28711 4.41992 1.94531C4.41992 1.65234 4.51758 1.11523 4.71289 0.333984ZM122.486 0.480469C130.689 0.773438 139.234 0.919922 148.121 0.919922H156.544C160.108 0.871094 166.261 0.84668 175.001 0.84668C183.79 0.797852 191.285 0.749023 197.486 0.700195C203.736 0.651367 209.938 0.529297 216.09 0.333984C216.48 3.70312 217.311 7.21875 218.58 10.8809C219.85 14.4941 221.07 17.4727 222.242 19.8164C223.414 22.1113 224.952 24.8945 226.856 28.166C226.466 28.9961 225.611 29.6553 224.293 30.1436C222.535 26.8232 220.411 23.8691 217.921 21.2812C215.431 18.6934 212.281 16.252 208.473 13.957C204.713 11.6621 200.001 9.78223 194.337 8.31738C188.722 6.85254 182.325 5.87598 175.147 5.3877H156.544C155.909 26.4814 155.592 42.4238 155.592 53.2148H176.466C177.687 53.2148 178.834 53.1172 179.908 52.9219C180.982 52.6777 181.983 52.2871 182.911 51.75C183.888 51.2129 184.718 50.7002 185.401 50.2119C186.134 49.6748 186.891 48.8936 187.672 47.8682C188.502 46.7939 189.161 45.915 189.649 45.2314C190.138 44.5479 190.748 43.4736 191.48 42.0088C192.213 40.4951 192.774 39.3477 193.165 38.5664C193.556 37.7852 194.142 36.4912 194.923 34.6846C195.753 32.8779 196.363 31.5596 196.754 30.7295C198.463 31.4619 199.391 32.0723 199.537 32.5605C196.656 40.0801 195.216 47.7217 195.216 55.4854C195.216 63.2002 196.656 70.8662 199.537 78.4834C199.195 79.167 198.268 79.8018 196.754 80.3877C193.775 73.21 191.505 68.4004 189.942 65.959C186.329 60.5391 181.837 57.8047 176.466 57.7559H155.592C155.592 68.2539 155.86 81.6572 156.397 97.9658C156.446 99.2354 157.008 100.334 158.082 101.262C159.156 102.141 160.694 102.824 162.696 103.312C164.747 103.801 166.456 104.167 167.823 104.411C169.239 104.606 171.07 104.802 173.316 104.997C173.512 105.974 173.609 106.633 173.609 106.975C173.609 107.365 173.512 107.854 173.316 108.439C165.016 108.146 156.52 108 147.828 108C139.039 108 130.543 108.146 122.34 108.439C122.145 107.854 122.047 107.365 122.047 106.975C122.047 106.633 122.145 105.974 122.34 104.997C123.805 104.851 124.977 104.729 125.855 104.631C126.734 104.533 127.931 104.362 129.444 104.118C131.007 103.874 132.252 103.605 133.18 103.312C134.156 102.971 135.157 102.556 136.183 102.067C137.208 101.579 137.965 100.993 138.453 100.31C138.99 99.626 139.259 98.8447 139.259 97.9658C139.845 82.6826 140.138 67.2773 140.138 51.75C140.138 35.9297 139.894 22.2822 139.405 10.8076C139.356 9.53809 138.795 8.46387 137.721 7.58496C136.695 6.70605 135.133 6.02246 133.033 5.53418C130.934 5.0459 129.249 4.72852 127.979 4.58203C126.71 4.38672 124.879 4.16699 122.486 3.92285C122.291 3.04395 122.193 2.43359 122.193 2.0918C122.193 1.79883 122.291 1.26172 122.486 0.480469Z" fill="#16C953"/>
</g>
<defs>
<filter id="filter0_di_1018_6" x="0.273438" y="0.333984" width="230.583" height="116.105" filterUnits="userSpaceOnUse" color-interpolation-filters="sRGB">
<feFlood flood-opacity="0" result="BackgroundImageFix"/>
<feColorMatrix in="SourceAlpha" type="matrix" values="0 0 0 0 0 0 0 0 0 0 0 0 0 0 0 0 0 0 127 0" result="hardAlpha"/>
<feOffset dy="4"/>
<feGaussianBlur stdDeviation="2"/>
<feComposite in2="hardAlpha" operator="out"/>
<feColorMatrix type="matrix" values="0 0 0 0 0 0 0 0 0 0 0 0 0 0 0 0 0 0 0.25 0"/>
<feBlend mode="normal" in2="BackgroundImageFix" result="effect1_dropShadow_1018_6"/>
<feBlend mode="normal" in="SourceGraphic" in2="effect1_dropShadow_1018_6" result="shape"/>
<feColorMatrix in="SourceAlpha" type="matrix" values="0 0 0 0 0 0 0 0 0 0 0 0 0 0 0 0 0 0 127 0" result="hardAlpha"/>
<feOffset dy="4"/>
<feGaussianBlur stdDeviation="2"/>
<feComposite in2="hardAlpha" operator="arithmetic" k2="-1" k3="1"/>
<feColorMatrix type="matrix" values="0 0 0 0 0 0 0 0 0 0 0 0 0 0 0 0 0 0 0.25 0"/>
<feBlend mode="normal" in2="shape" result="effect2_innerShadow_1018_6"/>
</filter>
</defs>
</svg>
